<?xml version="1.0" encoding="utf-8"?>
<!-- Generator: Adobe Illustrator 27.1.1, SVG Export Plug-In . SVG Version: 6.00 Build 0)  -->
<svg version="1.1" id="Lager_1" xmlns="http://www.w3.org/2000/svg" xmlns:xlink="http://www.w3.org/1999/xlink" x="0px" y="0px"
	 viewBox="0 0 248.31 70.8" style="enable-background:new 0 0 248.31 70.8;" xml:space="preserve">
<g>
	<path d="M0,0.4h13.52v4H8.88v24H4.64v-24H0V0.4z"/>
	<path d="M16.8,28.4v-28h4.24v11.8h5.04V0.4h4.24v28h-4.24V16.2h-5.04v12.2H16.8z"/>
	<path d="M34.96,0.4H47v4h-7.8v7.8h6.2v4h-6.2v8.2H47v4H34.96V0.4z"/>
	<path d="M58.56,0.4h4.68l5.4,18.8V0.4h4.16v28h-4.48l-5.6-17.92V28.4h-4.16V0.4z"/>
	<path d="M77.44,0.4h12.04v4h-7.8v7.8h6.2v4h-6.2v8.2h7.8v4H77.44V0.4z"/>
	<path d="M107.04,0.4l-4.64,28h-5.68l-4.64-28h4.32l3.2,22l3.2-22H107.04z"/>
	<path d="M110.32,0.4h12.04v4h-7.8v7.8h6.2v4h-6.2v8.2h7.8v4h-12.04V0.4z"/>
	<path d="M135.44,28.4l-3.08-11.56h-2.2V28.4h-4.24v-28h6.64c2.03,0,3.64,0.61,4.84,1.82c1.2,1.21,1.8,2.83,1.8,4.86v3.08
		c0,1.28-0.25,2.41-0.76,3.4c-0.51,0.99-1.23,1.76-2.16,2.32l3.56,12.52H135.44z M130.16,12.84h2.2c0.83,0,1.47-0.23,1.92-0.68
		c0.45-0.45,0.68-1.09,0.68-1.92V7c0-0.83-0.23-1.47-0.68-1.92c-0.45-0.45-1.09-0.68-1.92-0.68h-2.2V12.84z"/>
	<path d="M142.2,12.32h9.6v4.16h-9.6V12.32z"/>
	<path d="M155.32,0.4h12.04v4h-7.8v7.8h6.2v4h-6.2v8.2h7.8v4h-12.04V0.4z"/>
	<path d="M170.92,0.4h4.68l5.4,18.8V0.4h4.16v28h-4.48l-5.6-17.92V28.4h-4.16V0.4z"/>
	<path d="M189.8,0.4h6.64c2.03,0,3.64,0.61,4.84,1.82c1.2,1.21,1.8,2.83,1.8,4.86v14.64c0,2.03-0.6,3.65-1.8,4.86
		s-2.81,1.82-4.84,1.82h-6.64V0.4z M196.24,24.4c0.83,0,1.47-0.23,1.92-0.68c0.45-0.45,0.68-1.09,0.68-1.92V7
		c0-0.83-0.23-1.47-0.68-1.92c-0.45-0.45-1.09-0.68-1.92-0.68h-2.2v20H196.24z"/>
	<path d="M207.32,0.4h4.24v28h-4.24V0.4z"/>
	<path d="M216.2,0.4h4.68l5.4,18.8V0.4h4.16v28h-4.48l-5.6-17.92V28.4h-4.16V0.4z"/>
	<path d="M244.08,9.12V6.76c0-0.88-0.23-1.56-0.68-2.04S242.31,4,241.52,4s-1.43,0.24-1.88,0.72c-0.45,0.48-0.68,1.16-0.68,2.04
		v15.28c0,0.88,0.23,1.56,0.68,2.04c0.45,0.48,1.08,0.72,1.88,0.72s1.43-0.24,1.88-0.72s0.68-1.16,0.68-2.04v-4.96h-2.56v-4h6.8
		v8.96c0,2.03-0.63,3.66-1.88,4.9c-1.25,1.24-2.89,1.86-4.92,1.86s-3.67-0.62-4.92-1.86c-1.25-1.24-1.88-2.87-1.88-4.9V6.76
		c0-2.03,0.63-3.66,1.88-4.9c1.25-1.24,2.89-1.86,4.92-1.86s3.67,0.62,4.92,1.86c1.25,1.24,1.88,2.87,1.88,4.9v2.36H244.08z"/>
	<path d="M2.84,68.96C1.61,67.73,1,66.13,1,64.16V48.64c0-1.97,0.61-3.57,1.84-4.8C4.07,42.61,5.67,42,7.64,42
		c1.97,0,3.57,0.61,4.8,1.84c1.23,1.23,1.84,2.83,1.84,4.8v3.28h-4.16v-3.28c0-0.8-0.23-1.44-0.68-1.92C8.99,46.24,8.4,46,7.68,46
		c-0.72,0-1.31,0.24-1.76,0.72c-0.45,0.48-0.68,1.12-0.68,1.92v15.52c0,0.8,0.23,1.44,0.68,1.92c0.45,0.48,1.04,0.72,1.76,0.72
		c0.72,0,1.31-0.24,1.76-0.72c0.45-0.48,0.68-1.12,0.68-1.92v-4h4.16v4c0,1.97-0.61,3.57-1.84,4.8c-1.23,1.23-2.83,1.84-4.8,1.84
		C5.67,70.8,4.07,70.19,2.84,68.96z"/>
	<path d="M23.84,68.94c-1.25-1.24-1.88-2.87-1.88-4.9V48.76c0-2.03,0.63-3.66,1.88-4.9S26.73,42,28.76,42
		c2.03,0,3.67,0.62,4.92,1.86c1.25,1.24,1.88,2.87,1.88,4.9v15.28c0,2.03-0.63,3.66-1.88,4.9c-1.25,1.24-2.89,1.86-4.92,1.86
		C26.73,70.8,25.09,70.18,23.84,68.94z M30.64,66.08c0.45-0.48,0.68-1.16,0.68-2.04V48.76c0-0.88-0.23-1.56-0.68-2.04
		C30.19,46.24,29.56,46,28.76,46c-0.8,0-1.43,0.24-1.88,0.72c-0.45,0.48-0.68,1.16-0.68,2.04v15.28c0,0.88,0.23,1.56,0.68,2.04
		c0.45,0.48,1.08,0.72,1.88,0.72C29.56,66.8,30.19,66.56,30.64,66.08z"/>
	<path d="M63.12,42.4v28h-4.24V51.2l-3.96,19.2h-2.96L48,51.2v19.2h-4.16v-28h6l3.68,17.88l3.52-17.88H63.12z"/>
	<path d="M91.04,42.4v28H86.8V51.2l-3.96,19.2h-2.96l-3.96-19.2v19.2h-4.16v-28h6l3.68,17.88l3.52-17.88H91.04z"/>
	<path d="M99.68,42.4h12.04v4h-7.8v7.8h6.2v4h-6.2v8.2h7.8v4H99.68V42.4z"/>
	<path d="M119.28,42.4h4.68l5.4,18.8V42.4h4.16v28h-4.48l-5.6-17.92V70.4h-4.16V42.4z"/>
	<path d="M140.8,42.4h13.52v4h-4.64v24h-4.24v-24h-4.64V42.4z"/>
	<path d="M173.6,42.4h6.64c2.03,0,3.64,0.61,4.84,1.82c1.2,1.21,1.8,2.83,1.8,4.86v3.28c0,2.03-0.6,3.65-1.8,4.86
		c-1.2,1.21-2.81,1.82-4.84,1.82h-2.4V70.4h-4.24V42.4z M180.04,55.04c0.83,0,1.47-0.23,1.92-0.68s0.68-1.09,0.68-1.92V49
		c0-0.83-0.23-1.47-0.68-1.92c-0.45-0.45-1.09-0.68-1.92-0.68h-2.2v8.64H180.04z"/>
	<path d="M201.28,64.2h-4.56l-0.92,6.2h-4.24l4.64-28h5.68l4.64,28h-4.32L201.28,64.2z M200.72,60.12L199,48.4l-1.72,11.72H200.72z"
		/>
	<path d="M222.76,51.12v-2.36c0-0.88-0.23-1.56-0.68-2.04C221.62,46.24,221,46,220.2,46s-1.43,0.24-1.88,0.72
		c-0.45,0.48-0.68,1.16-0.68,2.04v15.28c0,0.88,0.23,1.56,0.68,2.04c0.45,0.48,1.08,0.72,1.88,0.72s1.43-0.24,1.88-0.72
		c0.45-0.48,0.68-1.16,0.68-2.04v-4.96h-2.56v-4h6.8v8.96c0,2.03-0.63,3.66-1.88,4.9c-1.25,1.24-2.89,1.86-4.92,1.86
		s-3.67-0.62-4.92-1.86c-1.25-1.24-1.88-2.87-1.88-4.9V48.76c0-2.03,0.63-3.66,1.88-4.9c1.25-1.24,2.89-1.86,4.92-1.86
		s3.67,0.62,4.92,1.86s1.88,2.87,1.88,4.9v2.36H222.76z"/>
	<path d="M235.12,42.4h12.04v4h-7.8v7.8h6.2v4h-6.2v8.2h7.8v4h-12.04V42.4z"/>
</g>
</svg>
