<?xml version="1.0" encoding="utf-8"?>
<!-- Generator: Adobe Illustrator 27.1.1, SVG Export Plug-In . SVG Version: 6.00 Build 0)  -->
<svg version="1.1" id="Lager_1" xmlns="http://www.w3.org/2000/svg" xmlns:xlink="http://www.w3.org/1999/xlink" x="0px" y="0px"
	 viewBox="0 0 239.78 105.79" style="enable-background:new 0 0 239.78 105.79;" xml:space="preserve">
<g>
	<path d="M172.63,38.95c-0.05,0.48,0,0.76-0.11,0.86c-4,3.71-7.57,7.94-12.42,10.66c-8.57,4.82-19.22,3.52-26.4-3.44
		c-6.74-6.54-8.99-14.55-6.32-23.55c2.63-8.87,8.8-14.36,17.85-16.18c7.35-1.48,13.9,0.72,19.42,5.71
		c4.42,3.99,8.66,8.2,12.96,12.32c6.44,6.17,12.81,12.42,19.33,18.51c5.23,4.89,11.41,6.76,18.37,4.51
		c7.14-2.31,11.63-7.38,13.07-14.7c1.42-7.23-0.93-13.47-6.56-18.2c-5.37-4.51-11.53-5.66-18.21-3.28c-3.1,1.1-5.6,3.13-7.95,5.37
		c-1.93,1.84-3.86,3.66-5.82,5.47c-0.19,0.17-0.5,0.21-0.85,0.14c4.15-3.86,7.64-8.47,12.88-10.95c9.88-4.67,21.58-0.06,25.95,10.14
		c5.07,11.81-2.51,25.5-15.19,27.35c-6.25,0.91-11.65-1.07-16.18-5.34c-6.79-6.41-13.44-12.95-20.19-19.4
		c-4.34-4.14-8.56-8.43-13.15-12.27c-11.17-9.34-26.38-5.2-32.93,6.01c-6.97,11.92-2.04,26.91,10.69,32.26
		c8.13,3.42,15.73,2.02,22.5-3.52C166.49,44.84,169.35,41.96,172.63,38.95z"/>
	<path d="M181.61,16.27c0.05-0.24,0.02-0.58,0.18-0.72c4.33-3.97,8.23-8.43,13.36-11.46c11.38-6.72,25.92-4.94,35.36,4.38
		c11.01,10.87,12.41,27.31,3.17,39.72c-9.77,13.12-28.11,16.09-41.14,6.15c-4.18-3.19-7.92-6.98-11.75-10.62
		c-7.66-7.29-15.22-14.67-22.85-21.99c-1.95-1.87-4.17-3.22-6.92-3.72c-4.46-0.81-9.68,1.81-12.03,5.97
		c-4.21,7.44,0.09,16.76,8.51,18.22c4.04,0.7,7.42-0.84,10.32-3.57c2.1-1.98,4.2-3.96,6.31-5.93c0.24-0.23,0.57-0.36,0.86-0.54
		c0.06,0.08,0.13,0.16,0.19,0.24c-0.08,0.15-0.13,0.32-0.25,0.43c-2.57,2.41-5.06,4.92-7.76,7.18c-3.98,3.34-8.49,4.02-13.2,1.71
		c-4.72-2.32-7.19-6.24-7.24-11.51c-0.07-7.84,6.34-13.65,14.16-12.87c2.66,0.27,4.94,1.52,6.86,3.32c4.38,4.1,8.71,8.25,13.04,12.4
		c6.41,6.15,12.74,12.39,19.23,18.45c10.24,9.56,24.62,10.69,36.11,2.98c15.24-10.22,17.38-32.09,4.42-45.06
		c-10.8-10.81-26.85-11.76-38.76-2.16c-3.26,2.63-6.19,5.66-9.27,8.51c-0.21,0.2-0.44,0.38-0.66,0.58
		C181.77,16.33,181.69,16.3,181.61,16.27z"/>
	<path d="M191.33,25.13c3.49-3,6.73-6.36,10.52-8.91c6.5-4.38,15.3-2.76,20.25,3.33c3.99,4.9,5.02,10.47,2.75,16.35
		c-2.31,5.99-6.83,9.6-13.26,10.43c-4.69,0.61-8.85-0.91-12.3-4.09c-4.85-4.47-9.57-9.08-14.34-13.64
		c-6.4-6.1-12.69-12.33-19.24-18.27c-4.78-4.34-10.63-6.4-17.12-6.24c-12.1,0.31-22.7,9.68-24.66,21.67
		c-2.22,13.61,6.27,26.49,19.69,29.66c8.4,1.98,15.88-0.2,22.39-5.73c2.82-2.4,5.44-5.05,8.15-7.57c0.24-0.22,0.57-0.36,0.85-0.53
		c0.09,0.11,0.18,0.23,0.27,0.34c-0.64,0.64-1.26,1.3-1.93,1.9c-2.95,2.66-5.7,5.59-8.91,7.89c-14.11,10.1-33.17,4.44-39.63-11.86
		C118.52,24.02,128.38,7.13,144.22,4c8.47-1.67,16.04,0.49,22.42,6.21c5.61,5.03,10.93,10.37,16.38,15.58
		c5.36,5.13,10.69,10.3,16.09,15.39c2.61,2.47,5.63,4.22,9.33,4.5c6.14,0.47,10.92-1.99,14.25-7.03c3.4-5.15,3.64-10.66,0.61-16.07
		c-2.96-5.28-7.58-8.11-13.69-8.14c-4.37-0.02-7.89,2.08-10.97,5c-2.02,1.91-4.02,3.83-6.04,5.72c-0.25,0.24-0.6,0.36-0.91,0.54
		C191.56,25.51,191.45,25.32,191.33,25.13z"/>
	<path d="M186.42,20.45c3.26-2.93,6.35-6.07,9.8-8.75c11.13-8.67,27.13-5.14,33.8,7.32c6.45,12.03,1.4,27.03-11.03,32.35
		c-8.96,3.84-17.22,2.23-24.43-4.15c-5.02-4.44-9.73-9.24-14.58-13.88c-6.01-5.75-11.93-11.61-18.06-17.24
		c-5.11-4.69-11.2-6.42-17.92-4.3c-13.32,4.2-17.97,20.26-8.9,30.74c5.05,5.83,11.5,7.9,19.06,6.02c3.04-0.76,5.62-2.45,7.92-4.54
		c2.39-2.17,4.7-4.41,7.06-6.61c0.24-0.22,0.58-0.35,0.87-0.51c0.1,0.15,0.21,0.3,0.31,0.45c-3.1,2.81-6.14,5.67-9.32,8.39
		c-1.18,1.01-2.59,1.8-4.01,2.45c-10.14,4.64-22.15-0.54-25.99-11.38c-2.62-7.4-1.24-14.29,4.05-20.08
		c5.17-5.66,11.73-7.56,19.22-5.71c3.58,0.89,6.54,2.95,9.17,5.47c8.57,8.23,17.08,16.52,25.67,24.73c2.7,2.58,5.39,5.26,8.43,7.41
		c8.91,6.31,20.5,5.18,28.07-2.66c6.36-6.59,8.26-14.48,5.31-23.13c-2.9-8.51-9.12-13.59-17.99-15.07
		c-6.79-1.13-12.72,1.16-17.82,5.62c-2.62,2.29-5.09,4.76-7.65,7.13c-0.22,0.21-0.57,0.28-0.85,0.42
		C186.55,20.79,186.48,20.62,186.42,20.45z"/>
	<path d="M177.63,43.63c-0.08,0.56-0.02,0.88-0.15,1c-4.62,4.25-8.78,9.05-14.43,12.09c-10.95,5.88-24.49,4.17-33.65-4.27
		c-14.73-13.59-12.76-36.84,4.04-47.76c10.65-6.92,24.57-6.16,34.55,2.17c4.39,3.67,8.43,7.77,12.58,11.73
		c7.05,6.73,14.01,13.56,21.09,20.25c4.55,4.3,10.39,4.65,15.18,1.16c4.18-3.05,6-8.43,4.52-13.39c-1.48-4.94-6-8.58-11.09-8.77
		c-3.05-0.11-5.74,1.01-8,3.02c-2.27,2.02-4.45,4.13-6.67,6.2c-0.38,0.35-0.76,0.71-1.4,0.97c0.05-0.24,0.02-0.57,0.16-0.7
		c3.05-2.77,5.87-5.88,9.24-8.19c7.08-4.86,17.31-0.06,18.7,8.52c1.22,7.55-3.31,13.97-10.82,15.22c-3.1,0.51-6.06-0.19-8.47-2.17
		c-3.09-2.54-6.01-5.31-8.9-8.08c-8.49-8.1-16.83-16.36-25.42-24.34c-8.86-8.22-21.59-9.92-32.1-4.63
		c-17.16,8.63-21.8,30.74-9.53,45.4c10.07,12.04,27.29,14.01,39.75,4.37c3.49-2.7,6.57-5.91,9.84-8.89
		C176.86,44.32,177.1,44.1,177.63,43.63z"/>
	<path d="M167.66,34.7c-0.15,0.23-0.25,0.51-0.44,0.69c-2.75,2.55-5.36,5.27-8.28,7.6c-9.79,7.81-23.56,1.5-25.41-10.1
		c-1.45-9.12,4.08-17.09,13.11-18.83c4.81-0.93,9.22,0.32,12.85,3.59c4.65,4.19,9.12,8.57,13.65,12.9
		c6.42,6.14,12.78,12.35,19.25,18.44c4.15,3.9,9.07,6.4,14.78,6.98c6.99,0.71,13.32-1.17,18.76-5.63
		c6.27-5.14,9.47-11.83,9.72-19.95c0.38-12.27-9.32-23.96-21.42-25.91c-8.76-1.41-16.07,1.41-22.44,7.25
		c-2.29,2.1-4.52,4.27-6.8,6.4c-0.23,0.22-0.55,0.34-0.83,0.51c-0.06-0.08-0.13-0.16-0.19-0.25c0.06-0.12,0.09-0.27,0.18-0.36
		c3.22-2.97,6.32-6.1,9.7-8.87c5.5-4.51,11.97-6.46,19-5.5c10.88,1.49,18.37,7.58,22.01,17.94c5.37,15.29-4.47,31.87-20.42,34.72
		c-8.54,1.53-16.03-0.89-22.3-6.67c-7.58-6.99-14.88-14.27-22.33-21.4c-3.68-3.52-7.31-7.13-11.2-10.4
		c-4.44-3.73-9.62-4.52-14.97-2.25c-5.65,2.39-8.93,6.78-9.63,12.94c-0.94,8.28,5.02,15.81,13.08,17.06
		c5.08,0.79,9.35-1.01,13.03-4.42c2.12-1.96,4.19-3.97,6.29-5.95c0.3-0.28,0.63-0.54,0.95-0.8
		C167.46,34.53,167.56,34.62,167.66,34.7z"/>
</g>
<g>
	<path d="M0,0.5h28.58v8.46h-9.81v50.74H9.81V8.95H0V0.5z"/>
	<path d="M39.74,59.69V0.5h8.96v24.95h10.65V0.5h8.96v59.19h-8.96V33.9H48.71v25.79H39.74z"/>
	<path d="M82.36,0.5h25.45v8.46H91.32v16.49h13.11v8.46H91.32v17.33h16.49v8.46H82.36V0.5z"/>
</g>
<g>
	<path d="M4.22,104.03c-1.17-1.17-1.75-2.69-1.75-4.57V84.69c0-1.88,0.58-3.4,1.75-4.57c1.17-1.17,2.69-1.75,4.57-1.75
		c1.88,0,3.4,0.58,4.57,1.75c1.17,1.17,1.75,2.69,1.75,4.57v3.12h-3.96v-3.12c0-0.76-0.22-1.37-0.65-1.83
		c-0.43-0.46-0.99-0.69-1.68-0.69c-0.69,0-1.24,0.23-1.68,0.69c-0.43,0.46-0.65,1.07-0.65,1.83v14.78c0,0.76,0.22,1.37,0.65,1.83
		s0.99,0.69,1.68,0.69c0.69,0,1.24-0.23,1.68-0.69c0.43-0.46,0.65-1.07,0.65-1.83v-3.81h3.96v3.81c0,1.88-0.58,3.4-1.75,4.57
		c-1.17,1.17-2.69,1.75-4.57,1.75C6.91,105.79,5.38,105.2,4.22,104.03z"/>
	<path d="M24.21,104.01c-1.19-1.18-1.79-2.74-1.79-4.67V84.8c0-1.93,0.6-3.49,1.79-4.67c1.19-1.18,2.75-1.77,4.69-1.77
		c1.93,0,3.49,0.59,4.68,1.77c1.19,1.18,1.79,2.74,1.79,4.67v14.55c0,1.93-0.6,3.48-1.79,4.67c-1.19,1.18-2.76,1.77-4.68,1.77
		C26.97,105.79,25.41,105.2,24.21,104.01z M30.69,101.29c0.43-0.46,0.65-1.1,0.65-1.94V84.8c0-0.84-0.22-1.49-0.65-1.94
		c-0.43-0.46-1.03-0.69-1.79-0.69c-0.76,0-1.36,0.23-1.79,0.69c-0.43,0.46-0.65,1.1-0.65,1.94v14.55c0,0.84,0.22,1.49,0.65,1.94
		s1.03,0.69,1.79,0.69C29.66,101.98,30.25,101.75,30.69,101.29z"/>
	<path d="M61.61,78.74v26.66h-4.04V87.12l-3.77,18.28h-2.82l-3.77-18.28v18.28h-3.96V78.74h5.71l3.5,17.02l3.35-17.02H61.61z"/>
	<path d="M88.2,78.74v26.66h-4.04V87.12l-3.77,18.28h-2.82L73.8,87.12v18.28h-3.96V78.74h5.71l3.5,17.02l3.35-17.02H88.2z"/>
	<path d="M96.42,78.74h11.46v3.81h-7.43v7.43h5.9v3.81h-5.9v7.81h7.43v3.81H96.42V78.74z"/>
	<path d="M115.09,78.74h4.46l5.14,17.9v-17.9h3.96v26.66h-4.27l-5.33-17.06v17.06h-3.96V78.74z"/>
	<path d="M135.58,78.74h12.87v3.81h-4.42v22.85H140V82.55h-4.42V78.74z"/>
	<path d="M166.81,78.74h6.32c1.93,0,3.47,0.58,4.61,1.73c1.14,1.16,1.71,2.7,1.71,4.63v3.12c0,1.93-0.57,3.47-1.71,4.63
		c-1.14,1.16-2.68,1.73-4.61,1.73h-2.29v10.82h-4.04V78.74z M172.94,90.78c0.79,0,1.4-0.22,1.83-0.65c0.43-0.43,0.65-1.04,0.65-1.83
		v-3.28c0-0.79-0.22-1.4-0.65-1.83s-1.04-0.65-1.83-0.65h-2.09v8.23H172.94z"/>
	<path d="M193.16,99.5h-4.34l-0.88,5.9h-4.04l4.42-26.66h5.41l4.42,26.66h-4.11L193.16,99.5z M192.63,95.62l-1.64-11.16l-1.64,11.16
		H192.63z"/>
	<path d="M213.62,87.05V84.8c0-0.84-0.22-1.49-0.65-1.94c-0.43-0.46-1.03-0.69-1.79-0.69s-1.36,0.23-1.79,0.69
		c-0.43,0.46-0.65,1.1-0.65,1.94v14.55c0,0.84,0.22,1.49,0.65,1.94s1.03,0.69,1.79,0.69s1.36-0.23,1.79-0.69s0.65-1.1,0.65-1.94
		v-4.72h-2.44v-3.81h6.47v8.53c0,1.93-0.6,3.48-1.79,4.67s-2.75,1.77-4.68,1.77s-3.49-0.59-4.68-1.77s-1.79-2.74-1.79-4.67V84.8
		c0-1.93,0.6-3.49,1.79-4.67s2.75-1.77,4.68-1.77s3.49,0.59,4.68,1.77s1.79,2.74,1.79,4.67v2.25H213.62z"/>
	<path d="M225.39,78.74h11.46v3.81h-7.43v7.43h5.9v3.81h-5.9v7.81h7.43v3.81h-11.46V78.74z"/>
</g>
</svg>
